<svg xmlns:xlink="http://www.w3.org/1999/xlink" xmlns="http://www.w3.org/2000/svg" width="42" height="26" viewBox="0 0 36 25" fill="none" aria-labelledby="paymentsdiners-diners" role="img" focusable="false">
    <g clip-path="url(#clip0_210_810)" fill="none">
        <path d="M1.47221 19.4916C1.47221 20.0761 1.89139 20.1437 2.26416 20.1437C3.90904 20.1437 4.44837 18.9081 4.44837 17.7778C4.44837 16.3604 3.53538 15.3367 2.06617 15.3367C1.75395 15.3367 1.61009 15.3584 1.47221 15.3667V19.4916H1.47221ZM0.726679 15.9347C0.726679 15.2528 0.368498 15.2977 0.0266571 15.29V15.0941C0.322989 15.1077 0.627431 15.1077 0.924662 15.1077C1.24415 15.1077 1.67836 15.0941 2.24185 15.0941C4.21259 15.0941 5.28628 16.4049 5.28628 17.7479C5.28628 18.4987 4.84525 20.3867 2.15037 20.3867C1.76302 20.3867 1.40394 20.3721 1.04666 20.3721C0.703922 20.3721 0.368501 20.3799 0.0266571 20.3867V20.189C0.482276 20.1437 0.703922 20.1286 0.726679 19.6132V15.9347V15.9347Z" fill="#231F20"></path>
        <path d="M6.36819 15.7536C6.31907 15.7537 6.2704 15.7442 6.22498 15.7255C6.17957 15.7069 6.13829 15.6795 6.10351 15.6449C6.06873 15.6104 6.04114 15.5693 6.02231 15.5241C6.00348 15.4789 5.99379 15.4305 5.99379 15.3815C5.99379 15.3326 6.00348 15.2841 6.02231 15.2389C6.04114 15.1937 6.06873 15.1527 6.10351 15.1181C6.13829 15.0836 6.17957 15.0562 6.22498 15.0375C6.2704 15.0189 6.31907 15.0094 6.36819 15.0095C6.466 15.0095 6.55991 15.0477 6.62972 15.116C6.69952 15.1842 6.73963 15.277 6.74141 15.3745C6.74142 15.4738 6.70233 15.5691 6.63254 15.64C6.56275 15.7109 6.46784 15.7516 6.36819 15.7536V15.7536ZM5.55304 20.1892H5.6978C5.91082 20.1892 6.0628 20.1892 6.0628 19.938V17.8841C6.0628 17.5504 5.94946 17.5046 5.66681 17.354V17.2325C6.02505 17.1255 6.45105 16.9827 6.48202 16.9587C6.52358 16.9344 6.57084 16.9216 6.61901 16.9215C6.65675 16.9215 6.6718 16.9664 6.6718 17.0272V19.938C6.6718 20.1892 6.8402 20.1892 7.05227 20.1892H7.18199V20.3868C6.923 20.3868 6.65675 20.3719 6.38278 20.3719C6.10875 20.3719 5.83478 20.3796 5.55304 20.3868V20.1892Z" fill="#231F20"></path>
        <path d="M7.90527 17.9292C7.90527 17.6495 7.82152 17.5733 7.46424 17.43V17.2849C7.805 17.1806 8.14027 17.0592 8.46876 16.9212C8.49152 16.9212 8.51382 16.9363 8.51382 16.996V17.4903C8.94844 17.1789 9.3217 16.9212 9.83191 16.9212C10.4786 16.9212 10.7071 17.391 10.7071 17.9827V19.9382C10.7071 20.1894 10.8751 20.1894 11.0876 20.1894H11.2246V20.3866C10.9575 20.3866 10.6912 20.3721 10.4181 20.3721C10.1437 20.3721 9.86964 20.3798 9.59568 20.3866V20.1894H9.73266C9.94614 20.1894 10.0973 20.1894 10.0973 19.9382V17.9755C10.0973 17.5425 9.83191 17.3307 9.39724 17.3307C9.15375 17.3307 8.76594 17.5275 8.51382 17.6947V19.9382C8.51382 20.1894 8.68263 20.1894 8.89566 20.1894H9.03265V20.3866C8.76594 20.3866 8.49878 20.3721 8.22431 20.3721C7.95124 20.3721 7.67682 20.3798 7.40279 20.3866V20.1894H7.54074C7.75326 20.1894 7.90527 20.1894 7.90527 19.9382V17.9292V17.9292Z" fill="#231F20"></path>
        <path d="M13.1514 18.0507C13.3407 18.0507 13.363 17.9525 13.363 17.8617C13.363 17.4741 13.1273 17.1635 12.7013 17.1635C12.2374 17.1635 11.9175 17.5044 11.8261 18.0507H13.1514ZM11.8037 18.2942C11.7859 18.4401 11.7859 18.5876 11.8037 18.7336C11.8483 19.4545 12.3134 20.0458 12.9219 20.0458C13.3407 20.0458 13.6693 19.8177 13.9501 19.5375L14.0567 19.6436C13.7063 20.1061 13.273 20.5 12.6489 20.5C11.4378 20.5 11.1947 19.3326 11.1947 18.8474C11.1947 17.3611 12.1992 16.9213 12.7313 16.9213C13.3484 16.9213 14.0116 17.3077 14.0184 18.1111C14.0196 18.157 14.0173 18.2029 14.0116 18.2485L13.9419 18.2942H11.8037Z" fill="#231F20"></path>
        <path d="M14.1934 20.1892H14.3995C14.6125 20.1892 14.7637 20.1892 14.7637 19.938V17.8079C14.7637 17.5736 14.4828 17.5278 14.3686 17.4665V17.3541C14.9238 17.1183 15.2293 16.9216 15.2979 16.9216C15.343 16.9216 15.3658 16.9433 15.3658 17.0199V17.7019H15.3821C15.5714 17.4066 15.8914 16.9216 16.3557 16.9216C16.4108 16.919 16.4658 16.9274 16.5175 16.9463C16.5692 16.9652 16.6167 16.9941 16.657 17.0315C16.6974 17.0689 16.7298 17.1139 16.7525 17.1639C16.7752 17.214 16.7876 17.268 16.789 17.3229C16.7917 17.3718 16.7845 17.4208 16.7679 17.467C16.7513 17.5131 16.7256 17.5555 16.6923 17.5916C16.659 17.6277 16.6188 17.6569 16.5741 17.6773C16.5293 17.6977 16.4809 17.709 16.4318 17.7105C16.195 17.7105 16.195 17.5278 15.9293 17.5278C15.776 17.5486 15.6354 17.6238 15.5333 17.7396C15.4313 17.8553 15.3745 18.0039 15.3735 18.158V19.938C15.3735 20.1892 15.5255 20.1892 15.7386 20.1892H16.1649V20.387C15.7463 20.3797 15.4272 20.3719 15.1 20.3719C14.7874 20.3719 14.4678 20.3797 14.1934 20.387V20.1892V20.1892Z" fill="#231F20"></path>
        <path d="M17.1238 19.3327C17.2235 19.8328 17.528 20.258 18.0838 20.258C18.5324 20.258 18.6991 19.9848 18.6991 19.7194C18.6991 18.8249 17.041 19.1119 17.041 17.8918C17.041 17.4665 17.3837 16.9215 18.2212 16.9215C18.5231 16.9286 18.8196 17.0036 19.0883 17.141L19.1419 17.9144H18.9672C18.8912 17.4371 18.6239 17.1631 18.137 17.1631C17.8321 17.1631 17.5435 17.3381 17.5435 17.6642C17.5435 18.552 19.309 18.2785 19.309 19.4691C19.309 19.9692 18.9057 20.5002 18.0004 20.5002C17.6742 20.4911 17.3552 20.4029 17.071 20.2432L16.9873 19.3708L17.1238 19.3327V19.3327Z" fill="#231F20"></path>
        <path d="M26.1828 16.4658H25.9925C25.8482 15.579 25.216 15.2227 24.3644 15.2227C23.4879 15.2227 22.2162 15.8061 22.2162 17.6252C22.2162 19.1582 23.3145 20.258 24.4856 20.258C25.2392 20.258 25.8637 19.7426 26.0161 18.9459L26.1905 18.9909L26.0161 20.0985C25.6962 20.2962 24.8351 20.5002 24.3326 20.5002C22.5516 20.5002 21.426 19.3554 21.426 17.6492C21.426 16.0945 22.8183 14.9795 24.3107 14.9795C24.9275 14.9795 25.5205 15.1768 26.1068 15.3813L26.1828 16.4658Z" fill="#231F20"></path>
        <path d="M26.4567 20.1892H26.6019C26.8153 20.1892 26.9677 20.1892 26.9677 19.938V15.7165C26.9677 15.2227 26.8535 15.2073 26.5641 15.1243V15.0027C26.8346 14.9171 27.097 14.8078 27.3482 14.6762C27.4005 14.6419 27.4566 14.6138 27.5154 14.5923C27.5618 14.5923 27.5763 14.6382 27.5763 14.6993V19.938C27.5763 20.1892 27.7443 20.1892 27.9573 20.1892H28.0865V20.3869C27.8289 20.3869 27.5618 20.3719 27.2869 20.3719C27.0137 20.3719 26.7397 20.3797 26.4567 20.3869V20.1892V20.1892Z" fill="#231F20"></path>
        <path d="M31.3453 19.9691C31.3453 20.1066 31.428 20.1133 31.5582 20.1133C31.6488 20.1133 31.7641 20.1066 31.8632 20.1066V20.2661C31.492 20.3178 31.1251 20.3961 30.7653 20.5005L30.7281 20.4779V19.8644C30.2721 20.2357 29.9207 20.5005 29.3795 20.5005C28.969 20.5005 28.5434 20.2357 28.5434 19.5992V17.6573C28.5434 17.4595 28.5124 17.2695 28.0873 17.2324V17.0882C28.3618 17.08 28.969 17.0356 29.0685 17.0356C29.1533 17.0356 29.1533 17.0882 29.1533 17.2551V19.211C29.1533 19.4382 29.1533 20.0906 29.815 20.0906C30.0731 20.0906 30.4158 19.8929 30.7354 19.6295V17.5879C30.7354 17.4369 30.3703 17.3539 30.0967 17.2774V17.1408C30.7818 17.095 31.2087 17.0356 31.2842 17.0356C31.3453 17.0356 31.3453 17.0882 31.3453 17.1721V19.9691V19.9691Z" fill="#231F20"></path>
        <path d="M32.8594 19.5297C32.8594 19.818 33.1335 20.3032 33.644 20.3032C34.4592 20.3032 34.8015 19.5065 34.8015 18.8313C34.8015 18.013 34.1771 17.3307 33.5835 17.3307C33.3004 17.3307 33.0652 17.5129 32.8594 17.6879V19.5297V19.5297ZM32.8594 17.4666C33.1638 17.2096 33.5758 16.9217 33.9941 16.9217C34.8771 16.9217 35.41 17.6879 35.41 18.5136C35.41 19.5065 34.6795 20.5004 33.5899 20.5004C33.2208 20.5 32.8576 20.409 32.5321 20.2356L32.304 20.4092L32.1447 20.3263C32.2137 19.8796 32.249 19.4284 32.2503 18.9765V15.7165C32.2503 15.2228 32.1366 15.2069 31.8471 15.124V15.0025C32.1178 14.9174 32.3803 14.8081 32.6313 14.676C32.6838 14.6416 32.7401 14.6136 32.7993 14.5926C32.8448 14.5926 32.8594 14.6383 32.8594 14.6996V17.4666V17.4666Z" fill="#231F20"></path>
        <path d="M0.0180893 24.7954H0.0759403C0.22475 24.7954 0.382691 24.7759 0.382691 24.5606V22.3992C0.382691 22.1839 0.22475 22.1643 0.0759403 22.1643H0.0180893V22.0387C0.180139 22.0387 0.428201 22.056 0.63165 22.056C0.838714 22.056 1.08677 22.0387 1.28115 22.0387V22.1643H1.2233C1.07449 22.1643 0.916547 22.1839 0.916547 22.3992V24.5606C0.916547 24.7759 1.07449 24.7954 1.2233 24.7954H1.28115V24.9201C1.08271 24.9201 0.833748 24.9038 0.627088 24.9038C0.423637 24.9038 0.180139 24.9201 0.0180893 24.9201V24.7954V24.7954Z" fill="#231F20"></path>
        <path d="M1.26347 24.9023L1.26392 24.8143H1.22387C1.07595 24.8143 0.89937 24.7885 0.898466 24.5604V22.399C0.899371 22.171 1.07595 22.1456 1.22387 22.1456H1.26347V22.0582C1.07229 22.0582 0.832455 22.074 0.631709 22.074C0.435127 22.074 0.196646 22.0585 0.0363978 22.0582V22.1456H0.0759949C0.223457 22.1456 0.40004 22.171 0.40004 22.399V24.5604C0.40004 24.7885 0.223457 24.8143 0.0759949 24.8143H0.0363978V24.9023C0.196646 24.9 0.431019 24.8855 0.627202 24.8855C0.828794 24.8855 1.06869 24.9009 1.26347 24.9023ZM1.28121 24.9377C1.08142 24.9377 0.832903 24.9214 0.627202 24.9214C0.424204 24.9214 0.180706 24.9377 0.018205 24.9377H7.62939e-06V24.7785H0.0759949C0.226217 24.7749 0.363202 24.7627 0.364103 24.5604V22.399C0.363202 22.1973 0.226217 22.1836 0.0759949 22.181H7.62939e-06V22.0223H0.018205C0.180706 22.0223 0.428766 22.0382 0.631709 22.0382C0.837918 22.0382 1.08552 22.0223 1.28121 22.0223H1.2994V22.181H1.22387C1.07319 22.1836 0.935303 22.1973 0.934857 22.399V24.5604C0.935303 24.7627 1.07319 24.7749 1.22387 24.7785H1.2994V24.9377H1.28121Z" fill="#231F20"></path>
        <path d="M4.12725 24.107L4.13542 24.0988V22.5514C4.13542 22.2132 3.89919 22.1641 3.77448 22.1641H3.68391V22.0391C3.87824 22.0391 4.06941 22.0559 4.26378 22.0559C4.4331 22.0559 4.60377 22.0391 4.77264 22.0391V22.1641H4.71164C4.53685 22.1641 4.34158 22.1964 4.34158 22.6874V24.5654C4.33935 24.7046 4.34788 24.8437 4.36708 24.9816H4.2096L2.07635 22.6136V24.3128C2.07635 24.6728 2.14643 24.7952 2.46552 24.7952H2.53559V24.9199C2.3581 24.9199 2.17966 24.9036 2.00128 24.9036C1.81602 24.9036 1.62485 24.9199 1.43869 24.9199V24.7952H1.49648C1.78234 24.7952 1.86969 24.6026 1.86969 24.272V22.5346C1.86976 22.4855 1.86001 22.4368 1.841 22.3915C1.822 22.3462 1.79413 22.3051 1.75901 22.2706C1.72389 22.2361 1.68223 22.2089 1.63646 22.1907C1.59069 22.1724 1.54173 22.1634 1.49242 22.1641H1.43869V22.0391C1.59528 22.0391 1.75727 22.0559 1.91432 22.0559C2.03902 22.0559 2.15966 22.0391 2.28342 22.0391L4.12725 24.107H4.12725Z" fill="#231F20"></path>
        <path d="M4.11734 24.0986V24.0972L4.11368 24.0946L4.11734 24.0986ZM4.12736 24.1068L4.14055 24.095L4.12736 24.1068ZM4.20927 24.9637H4.34676C4.32981 24.8317 4.3225 24.6987 4.3249 24.5656V22.6872C4.3249 22.192 4.53291 22.1458 4.7113 22.1458H4.755V22.0578C4.5916 22.0587 4.4282 22.0741 4.2639 22.0741C4.07414 22.0741 3.88933 22.0587 3.70183 22.0578V22.1458H3.77414C3.90206 22.1458 4.15282 22.202 4.15282 22.5516L4.14782 24.1114L4.1392 24.119L4.12511 24.1322L2.28358 22.0578C2.16023 22.0578 2.04009 22.0741 1.91448 22.0741C1.76291 22.0741 1.60676 22.0587 1.45661 22.0578L1.45616 22.1458H1.49254C1.54418 22.1453 1.59542 22.1549 1.6433 22.1742C1.69117 22.1935 1.73472 22.222 1.77143 22.2582C1.80814 22.2944 1.83727 22.3375 1.85714 22.385C1.877 22.4324 1.88721 22.4834 1.88716 22.5348V24.2722C1.88716 24.6028 1.79473 24.8131 1.49665 24.8145L1.45661 24.8131V24.9024C1.63589 24.9002 1.82024 24.8853 2.00139 24.8853C2.17483 24.8853 2.34684 24.9002 2.51751 24.9024V24.8145H2.46518C2.13928 24.8131 2.05828 24.6726 2.05828 24.313V22.567L4.20927 24.9637V24.9637ZM4.36675 25L4.19608 24.9936L2.09376 22.66V24.313C2.09923 24.6726 2.15386 24.7742 2.46518 24.7787H2.5544V24.9374H2.5357C2.35687 24.9374 2.17843 24.9215 2.00139 24.9215C1.81659 24.9215 1.62638 24.9374 1.43791 24.9374H1.41972V24.7787H1.49665C1.77062 24.7765 1.84847 24.6015 1.85213 24.2722V22.5348C1.85205 22.488 1.84266 22.4417 1.8245 22.3985C1.80635 22.3554 1.77979 22.3162 1.74635 22.2833C1.71292 22.2504 1.67327 22.2245 1.62971 22.2069C1.58615 22.1894 1.53953 22.1806 1.49254 22.1811H1.41972V22.0221H1.43791C1.59674 22.0221 1.75834 22.0384 1.91448 22.0384C2.03733 22.0384 2.15753 22.0221 2.29722 22.0284L4.11734 24.0692V22.5516C4.11509 22.2233 3.89569 22.1839 3.77414 22.1811H3.66492V22.0221H3.68358C3.87885 22.0221 4.07003 22.0384 4.2639 22.0384C4.43187 22.0384 4.60209 22.0221 4.77274 22.0221H4.7914V22.1811H4.7113C4.53972 22.1862 4.36495 22.2016 4.35993 22.6872V24.5656C4.35748 24.7038 4.36554 24.8421 4.38404 24.9791L4.38771 25H4.36675Z" fill="#231F20"></path>
        <path d="M5.39302 22.2457C5.08215 22.2457 5.07077 22.3201 5.00797 22.621H4.88417C4.90101 22.506 4.92106 22.3903 4.93425 22.2702C4.95048 22.1542 4.95868 22.0372 4.9588 21.9201H5.0585C5.09173 22.0439 5.19503 22.039 5.30701 22.039H7.44436C7.55588 22.039 7.65963 22.0353 7.66831 21.9115L7.7666 21.9288C7.75156 22.039 7.73472 22.1509 7.722 22.2625C7.71332 22.3735 7.71332 22.4855 7.71332 22.5967L7.58957 22.6428C7.58134 22.4896 7.55994 22.2457 7.28275 22.2457H6.60369V24.441C6.60369 24.7598 6.7489 24.7956 6.94733 24.7956H7.02563V24.9198C6.86449 24.9198 6.57412 24.9036 6.35062 24.9036C6.10262 24.9036 5.81175 24.9198 5.6502 24.9198V24.7956H5.72894C5.95741 24.7956 6.07253 24.7757 6.07253 24.4501V22.2457H5.39302Z" fill="#231F20"></path>
        <path d="M7.02647 24.9375C6.86307 24.9375 6.57316 24.9212 6.35062 24.9212C6.10256 24.9212 5.81354 24.9375 5.65014 24.9375H5.63285V24.7783H5.72933C5.95779 24.7729 6.04972 24.7702 6.05428 24.45V22.2633H5.39296V22.2284H6.09072V24.45C6.09072 24.7806 5.95689 24.8146 5.72933 24.8146H5.66833V24.9016C5.83218 24.9002 6.11027 24.8854 6.35062 24.8854C6.56679 24.8854 6.84352 24.9002 7.00737 24.9016V24.8146H6.94727C6.74703 24.8146 6.58498 24.766 6.58498 24.441V22.2284H7.2827C7.56084 22.2288 7.59722 22.4637 7.60589 22.617L7.69647 22.5839C7.69647 22.4769 7.69692 22.369 7.70374 22.2596C7.71556 22.1545 7.73106 22.0489 7.74649 21.9433L7.68368 21.9328C7.66324 22.0525 7.54714 22.0593 7.44384 22.0579H5.28555C5.1877 22.0579 5.08209 22.053 5.04526 21.9382H4.97608C4.97618 22.0503 4.96795 22.1623 4.95148 22.2733C4.93964 22.3863 4.92145 22.4954 4.90596 22.6033H4.99429C5.04937 22.3168 5.0844 22.2234 5.39295 22.2284V22.2633C5.0871 22.2696 5.09397 22.3204 5.02565 22.6256L5.0234 22.6396H4.8632L4.86591 22.6184C4.88186 22.5032 4.90371 22.3875 4.91644 22.2674C4.93291 22.1524 4.94111 22.0363 4.94099 21.92V21.902H5.07257L5.07527 21.9151C5.10394 22.0194 5.17998 22.0199 5.28554 22.0221H7.44384C7.55853 22.0199 7.64319 22.0181 7.64999 21.91L7.6514 21.8911L7.67005 21.8948L7.78659 21.9128L7.78473 21.9305C7.76834 22.0416 7.752 22.1532 7.74012 22.2633C7.73151 22.374 7.73151 22.4855 7.73151 22.5965V22.6092L7.71967 22.6142L7.57266 22.6678L7.57221 22.6427C7.56084 22.4882 7.54444 22.2633 7.2827 22.2633H6.62143V24.441C6.62549 24.7525 6.74974 24.7743 6.94727 24.7783H7.04332V24.9375H7.02647Z" fill="#231F20"></path>
        <path d="M7.89964 24.7954H7.95744C8.10625 24.7954 8.26373 24.7759 8.26373 24.5606V22.3992C8.26373 22.1839 8.10625 22.1643 7.95744 22.1643H7.89964V22.0387C8.1513 22.0387 8.58373 22.056 8.93052 22.056C9.27919 22.056 9.70929 22.0387 9.99008 22.0387C9.98326 22.2169 9.98737 22.4899 9.99965 22.6712L9.87449 22.7043C9.85495 22.4363 9.80488 22.2219 9.36975 22.2219H8.79534V23.3019H9.2869C9.53587 23.3019 9.59005 23.1627 9.61416 22.9397H9.73796C9.73019 23.1006 9.72568 23.2611 9.72568 23.4221C9.72568 23.5794 9.73019 23.7358 9.73796 23.8922L9.61416 23.9171C9.59005 23.6696 9.57727 23.5087 9.29101 23.5087H8.79534V24.4699C8.79534 24.7383 9.03472 24.7383 9.29918 24.7383C9.7971 24.7383 10.016 24.7052 10.1403 24.235L10.2559 24.2641C10.2022 24.4834 10.1526 24.7006 10.1153 24.9201C9.85083 24.9201 9.37387 24.9038 9.00109 24.9038C8.62788 24.9038 8.13537 24.9201 7.89964 24.9201V24.7954H7.89964Z" fill="#231F20"></path>
        <path d="M10.1002 24.9016C10.1357 24.6935 10.1831 24.4849 10.2345 24.2773L10.1526 24.2568C10.0283 24.7189 9.78848 24.7597 9.29917 24.7561C9.03794 24.7561 8.77714 24.7561 8.77579 24.47V23.491H9.291C9.58047 23.4875 9.60913 23.662 9.62964 23.8969L9.71931 23.8783C9.71198 23.7264 9.70794 23.5732 9.70794 23.4222C9.70794 23.2675 9.71198 23.113 9.71931 22.9565H9.62964C9.60689 23.1724 9.53997 23.3228 9.28645 23.3202H8.77579V22.203H9.36975C9.80076 22.2007 9.87269 22.4224 9.89043 22.6808L9.97965 22.6568C9.97278 22.5402 9.96872 22.392 9.96872 22.2542C9.96872 22.1822 9.97007 22.1163 9.97188 22.0579C9.69064 22.0587 9.27096 22.0743 8.93052 22.0743C8.59054 22.0743 8.17091 22.0587 7.91738 22.0579V22.1458H7.95743C8.10534 22.1458 8.28148 22.1712 8.28244 22.3988V24.5607C8.28148 24.7882 8.10534 24.8128 7.95743 24.8145H7.91738V24.9016C8.15812 24.9007 8.6374 24.8853 9.00109 24.8853C9.36654 24.8853 9.83263 24.9007 10.1002 24.9016V24.9016ZM10.1153 24.9375C9.84948 24.9375 9.37336 24.9207 9.00109 24.9207C8.62788 24.9207 8.13633 24.9375 7.89964 24.9375H7.88145V24.7788H7.95743C8.10714 24.776 8.24418 24.7625 8.24554 24.5607V22.3988C8.24418 22.198 8.10714 22.1843 7.95743 22.1808H7.88145V22.0221H7.89964C8.15175 22.0221 8.58372 22.0384 8.93052 22.0384C9.27828 22.0384 9.70839 22.0221 9.99013 22.0221H10.0088V22.0402C10.0051 22.1023 10.0038 22.1754 10.0038 22.2542C10.0038 22.3961 10.0088 22.5521 10.0165 22.6695V22.6844L10.0033 22.6886L9.85765 22.7266L9.85719 22.7049C9.83263 22.4378 9.79709 22.2428 9.36975 22.2393H8.81172V23.2838H9.28645C9.52583 23.282 9.56773 23.1601 9.59596 22.9375L9.59776 22.9216H9.75705V22.9397C9.74844 23.1007 9.74342 23.2612 9.74342 23.4222C9.74342 23.5781 9.74844 23.735 9.75705 23.8923V23.9065L9.74207 23.91L9.59776 23.9382L9.59596 23.9191C9.56773 23.6674 9.56638 23.5297 9.291 23.5264L8.81172 23.5255V24.47C8.81217 24.7207 9.02887 24.7194 9.29917 24.7207C9.7985 24.718 9.99785 24.6935 10.1225 24.2301L10.1267 24.2133L10.1444 24.217L10.2768 24.251L10.2732 24.2682C10.2195 24.4859 10.1703 24.7049 10.133 24.9224L10.1303 24.9375H10.1153Z" fill="#231F20"></path>
        <path d="M11.3458 23.434H11.5479C11.9625 23.434 12.186 23.2781 12.186 22.7907C12.1918 22.7101 12.1801 22.6292 12.1517 22.5535C12.1234 22.4778 12.079 22.409 12.0217 22.3519C11.9643 22.2947 11.8953 22.2505 11.8193 22.2223C11.7433 22.194 11.6621 22.1824 11.5812 22.1881C11.5024 22.1893 11.4239 22.1949 11.3458 22.2049V23.434L11.3458 23.434ZM10.8155 22.4769C10.8155 22.1754 10.6499 22.164 10.5215 22.164H10.446V22.039C10.5784 22.039 10.8356 22.0557 11.0886 22.0557C11.3362 22.0557 11.5356 22.039 11.7558 22.039C12.2765 22.039 12.7404 22.1795 12.7404 22.7662C12.7404 23.1371 12.4927 23.3637 12.1656 23.493L12.8742 24.548C12.912 24.6218 12.9694 24.6838 13.0401 24.7274C13.1107 24.771 13.192 24.7946 13.2752 24.7956V24.9198C13.1386 24.9198 13.0062 24.9036 12.8696 24.9036C12.7404 24.9036 12.6083 24.9198 12.48 24.9198C12.1621 24.4943 11.8742 24.0474 11.6184 23.5823H11.3458V24.4655C11.3458 24.7843 11.4942 24.7956 11.6844 24.7956H11.76V24.9198C11.5228 24.9198 11.283 24.9036 11.0467 24.9036C10.8483 24.9036 10.6535 24.9198 10.446 24.9198V24.7956H10.5215C10.6735 24.7956 10.8155 24.7263 10.8155 24.573V22.4769H10.8155Z" fill="#231F20"></path>
        <path d="M11.5481 23.4165C11.9577 23.4124 12.1647 23.271 12.1683 22.7912C12.1742 22.7128 12.163 22.6341 12.1355 22.5605C12.1081 22.4868 12.065 22.4199 12.0092 22.3643C11.9535 22.3087 11.8863 22.2658 11.8124 22.2384C11.7385 22.2109 11.6595 22.1997 11.5808 22.2055C11.5081 22.2055 11.4356 22.2108 11.3636 22.2213V23.4165H11.5481ZM11.345 23.4514H11.3273V22.1878L11.3428 22.1864C11.4217 22.1766 11.5012 22.1715 11.5808 22.171C11.6641 22.1655 11.7475 22.1777 11.8256 22.2069C11.9037 22.2361 11.9747 22.2816 12.0337 22.3403C12.0927 22.399 12.1385 22.4696 12.1679 22.5474C12.1973 22.6252 12.2097 22.7083 12.2043 22.7912C12.2029 23.2836 11.9654 23.4514 11.5481 23.4514H11.345ZM11.345 23.5647H11.6281L11.6331 23.5738C11.8875 24.0337 12.1704 24.4774 12.4801 24.9023C12.6067 24.9023 12.74 24.8855 12.8684 24.8855C13.0008 24.8855 13.1288 24.8996 13.2575 24.9014V24.8107C13.1747 24.8074 13.0943 24.7823 13.0244 24.738C12.9544 24.6937 12.8975 24.6318 12.8593 24.5586L12.1379 23.484L12.1587 23.4754C12.4829 23.3485 12.7227 23.1281 12.7232 22.7654C12.7227 22.1936 12.2758 22.0599 11.756 22.0582C11.5371 22.0582 11.3373 22.074 11.0888 22.074C10.8444 22.074 10.5995 22.0585 10.4638 22.0582V22.1461H10.5212C10.6495 22.1461 10.832 22.1669 10.832 22.477V24.5731C10.832 24.7391 10.6773 24.8143 10.5212 24.8143H10.4638V24.9014C10.6637 24.9009 10.8516 24.8855 11.046 24.8855C11.2781 24.8855 11.5116 24.9009 11.7409 24.9014V24.8143H11.6845C11.4957 24.8143 11.3273 24.7912 11.3273 24.4656V23.5647H11.345ZM13.2753 24.9372C13.1365 24.9372 13.0049 24.9214 12.8684 24.9214C12.7427 24.9214 12.6099 24.9372 12.4651 24.9313C12.1497 24.5074 11.8634 24.0629 11.6082 23.6006H11.3636V24.4656C11.3678 24.7762 11.4929 24.7735 11.6845 24.7785H11.7774V24.9372H11.7587C11.5216 24.9372 11.2808 24.9214 11.046 24.9214C10.848 24.9214 10.6541 24.9372 10.4456 24.9372H10.4288V24.7785H10.5212C10.6705 24.7772 10.7952 24.7124 10.7966 24.5731V22.477C10.7939 22.1846 10.6495 22.185 10.5212 22.181H10.4288V22.0223H10.4456C10.5808 22.0223 10.8362 22.0382 11.0888 22.0382C11.3355 22.0382 11.5348 22.0223 11.756 22.0223C12.2771 22.0223 12.7583 22.1669 12.7595 22.7654C12.7595 23.1381 12.512 23.3707 12.1929 23.5003L12.8884 24.5383C12.9252 24.6097 12.9809 24.6699 13.0495 24.7122C13.1181 24.7545 13.1969 24.7775 13.2776 24.7785L13.2926 24.7799V24.9372H13.2753Z" fill="#231F20"></path>
        <path d="M16.0872 24.107L16.0949 24.0988V22.5514C16.0949 22.2132 15.8591 22.1641 15.7354 22.1641H15.6439V22.0391C15.8392 22.0391 16.0285 22.0559 16.2242 22.0559C16.3944 22.0559 16.5637 22.0391 16.734 22.0391V22.1641H16.6725C16.4982 22.1641 16.3029 22.1964 16.3029 22.6874V24.5654C16.3003 24.7045 16.3083 24.8437 16.327 24.9816H16.1705L14.0372 22.6136V24.3128C14.0372 24.6728 14.1078 24.7952 14.4269 24.7952H14.4978V24.9199C14.319 24.9199 14.1406 24.9036 13.9626 24.9036C13.776 24.9036 13.5857 24.9199 13.3995 24.9199V24.7952H13.4564C13.7432 24.7952 13.8297 24.6026 13.8297 24.272V22.5346C13.8298 22.4855 13.8202 22.4369 13.8013 22.3916C13.7824 22.3463 13.7546 22.3052 13.7195 22.2707C13.6845 22.2362 13.6429 22.209 13.5972 22.1907C13.5514 22.1724 13.5025 22.1634 13.4533 22.1641H13.3995V22.0391C13.5562 22.0391 13.719 22.0559 13.8757 22.0559C13.9995 22.0559 14.1197 22.0391 14.2439 22.0391L16.0872 24.107V24.107Z" fill="#231F20"></path>
        <path d="M16.0773 24.0986V24.0972L16.075 24.0946L16.0773 24.0986ZM16.0873 24.1068L16.1005 24.095L16.0873 24.1068ZM16.1706 24.9637H16.3058C16.2898 24.8316 16.2828 24.6986 16.2848 24.5656V22.6872C16.2848 22.192 16.4946 22.1468 16.6722 22.1458H16.7153V22.0578C16.5524 22.0587 16.3885 22.0741 16.2242 22.0741C16.0345 22.0741 15.8488 22.0587 15.6622 22.0578V22.1458H15.7355C15.8628 22.1468 16.1142 22.202 16.1142 22.5516L16.1082 24.1114L16.1005 24.119L16.0873 24.1331L14.2439 22.0578C14.1211 22.0578 13.9999 22.0741 13.8757 22.0741C13.7219 22.0741 13.5671 22.0587 13.4169 22.0578V22.1458H13.4529C13.5046 22.1452 13.5558 22.1548 13.6037 22.1741C13.6516 22.1934 13.6952 22.2219 13.7319 22.2581C13.7686 22.2943 13.7978 22.3374 13.8176 22.3849C13.8375 22.4324 13.8476 22.4834 13.8476 22.5348V24.2718C13.8476 24.6028 13.7533 24.8131 13.4562 24.8145H13.4169V24.9016C13.5963 24.9002 13.7807 24.8853 13.9627 24.8853C14.1356 24.8853 14.3077 24.9002 14.4792 24.9016V24.8145H14.427C14.1005 24.8145 14.0191 24.6731 14.0182 24.313V22.567L16.1706 24.9637V24.9637ZM16.3271 25L16.1569 24.9936L14.0551 22.66V24.313C14.06 24.6731 14.1147 24.7742 14.427 24.7787H14.5148V24.9374H14.497C14.3176 24.9374 14.1398 24.9206 13.9627 24.9206C13.7774 24.9206 13.5854 24.9374 13.3996 24.9374H13.38V24.7787H13.4562C13.7297 24.7774 13.8088 24.6015 13.8116 24.2718V22.5348C13.8117 22.488 13.8025 22.4417 13.7845 22.3985C13.7665 22.3553 13.74 22.316 13.7066 22.2831C13.6733 22.2502 13.6336 22.2242 13.5901 22.2067C13.5465 22.1892 13.4999 22.1805 13.4529 22.1811H13.38V22.0221H13.3996C13.5572 22.0221 13.7196 22.0384 13.8757 22.0384C13.9978 22.0384 14.1174 22.0221 14.2563 22.027L16.0773 24.0692V22.5516C16.0768 22.2233 15.8556 22.183 15.7355 22.1811H15.6258V22.0221H15.644C15.8401 22.0221 16.0308 22.0384 16.2242 22.0384C16.3927 22.0384 16.5629 22.0221 16.7335 22.0221H16.7513V22.1811H16.6722C16.5014 22.1853 16.3253 22.2016 16.3208 22.6872V24.5656C16.318 24.7039 16.3262 24.8421 16.3454 24.9791L16.3472 25H16.3271Z" fill="#231F20"></path>
        <path d="M18.0051 22.5016H17.9969L17.6114 23.6696H18.3855L18.0051 22.5016ZM17.4011 24.3298C17.3593 24.4335 17.3282 24.5412 17.3082 24.6512C17.3082 24.7756 17.4835 24.7954 17.6196 24.7954H17.6655V24.9197C17.4989 24.9115 17.3297 24.9038 17.1635 24.9038C17.0142 24.9038 16.8659 24.9115 16.717 24.9197V24.7954H16.7412C16.8221 24.7956 16.901 24.7696 16.9658 24.7213C17.0307 24.6729 17.078 24.6049 17.1007 24.5275L17.7642 22.6346C17.829 22.468 17.8803 22.2965 17.9177 22.1217C18.049 22.0754 18.1754 22.0161 18.295 21.9449C18.3053 21.9401 18.3164 21.9375 18.3278 21.9372C18.3332 21.9362 18.3389 21.9368 18.3441 21.9388C18.3492 21.9409 18.3537 21.9445 18.3569 21.949C18.3692 21.9821 18.3815 22.0192 18.3947 22.0523L19.1561 24.2105C19.2057 24.3547 19.2558 24.5079 19.3091 24.6318C19.3305 24.6852 19.3688 24.7302 19.4183 24.7597C19.4678 24.7893 19.5257 24.8018 19.5831 24.7954H19.6072V24.9197C19.4214 24.9115 19.2348 24.9038 19.0365 24.9038C18.8339 24.9038 18.6264 24.9115 18.4157 24.9197V24.7954H18.4611C18.5558 24.7954 18.7174 24.78 18.7174 24.6766C18.7017 24.5745 18.6735 24.4746 18.6336 24.3792L18.4725 23.9004H17.5323L17.4011 24.3298V24.3298Z" fill="#231F20"></path>
        <path d="M17.9868 22.5073L17.9968 22.5045L17.9868 22.5073ZM17.6354 23.6522H18.3604L17.9999 22.5457L17.6354 23.6522ZM17.5858 23.6879L17.9826 22.4842H18.0049V22.5013L18.0008 22.5032L18.0049 22.5013V22.4842H18.0172L18.4105 23.6879H17.5858ZM18.4327 24.9002C18.6371 24.8939 18.8388 24.8854 19.0364 24.8854C19.2293 24.8854 19.4091 24.8939 19.5893 24.9002V24.8146H19.5829C19.5219 24.8206 19.4606 24.8066 19.4083 24.7749C19.3559 24.7432 19.3153 24.6954 19.2925 24.6387C19.2387 24.5136 19.1883 24.3603 19.1396 24.2162L18.3772 22.0579C18.3644 22.0248 18.3517 21.9876 18.3417 21.9582C18.3377 21.9541 18.3391 21.9541 18.3354 21.9541H18.3276C18.3195 21.9546 18.3115 21.9565 18.304 21.9596C18.1885 22.0302 18.0642 22.0857 17.9344 22.1246C17.8971 22.3001 17.8457 22.4724 17.7806 22.6396L17.1184 24.5339C17.094 24.6148 17.0442 24.6858 16.9763 24.7364C16.9083 24.7869 16.8258 24.8144 16.741 24.8146H16.7346V24.9002C16.8762 24.8939 17.0201 24.8854 17.1638 24.8854C17.324 24.8854 17.4874 24.8939 17.6458 24.9002V24.8146H17.6195C17.4843 24.8128 17.2958 24.7983 17.2913 24.6518C17.3096 24.5398 17.3402 24.4302 17.3828 24.325L17.401 24.3299L17.3828 24.3245L17.5193 23.8834H18.4842L18.6503 24.3735C18.6913 24.4706 18.7198 24.5725 18.735 24.6767C18.7286 24.8033 18.5543 24.8123 18.461 24.8146H18.4327V24.9002V24.9002ZM19.6061 24.9375C19.421 24.9298 19.2347 24.9207 19.0364 24.9207C18.8338 24.9207 18.6276 24.9298 18.4155 24.9375L18.3969 24.9389V24.7769H18.461C18.556 24.7769 18.6982 24.7561 18.6982 24.6767C18.6828 24.5768 18.6556 24.4789 18.6172 24.3853L18.4597 23.9186H17.5458L17.4164 24.335C17.3762 24.4375 17.3457 24.5436 17.3254 24.6518C17.3268 24.7525 17.482 24.7769 17.6195 24.7769H17.6827V24.9389L17.664 24.9375C17.4983 24.9298 17.3285 24.9207 17.1638 24.9207C17.015 24.9207 16.8657 24.9298 16.7174 24.9375L16.6992 24.9389V24.7769H16.741C16.8182 24.7774 16.8934 24.7527 16.9552 24.7066C17.017 24.6605 17.062 24.5956 17.0833 24.5217L17.7469 22.6283C17.8118 22.4573 17.8668 22.2827 17.9117 22.1055C18.0423 22.058 18.1683 21.9985 18.288 21.9279C18.3004 21.922 18.3139 21.9186 18.3276 21.9179C18.3367 21.9174 18.3458 21.9195 18.3537 21.9239C18.3617 21.9284 18.3683 21.9349 18.3727 21.9428C18.3854 21.9763 18.3981 22.013 18.4105 22.0462L19.1738 24.2048C19.2225 24.349 19.2721 24.5013 19.3257 24.6228C19.3449 24.6736 19.3807 24.7165 19.4274 24.7445C19.4741 24.7724 19.5289 24.7839 19.5829 24.7769H19.6257V24.9389L19.6061 24.9375Z" fill="#231F20"></path>
        <path d="M19.7903 22.2457C19.4789 22.2457 19.4671 22.3201 19.4048 22.621H19.2801C19.2968 22.506 19.3178 22.3903 19.3301 22.2702C19.3469 22.1543 19.3553 22.0373 19.3551 21.9201H19.4544C19.4876 22.0439 19.5914 22.039 19.7029 22.039H21.8402C21.9518 22.039 22.0547 22.0353 22.0633 21.9115L22.1629 21.9288C22.1469 22.039 22.1311 22.1509 22.1174 22.2625C22.1074 22.3735 22.1074 22.4855 22.1074 22.5967L21.9845 22.6428C21.9777 22.4896 21.9558 22.2457 21.6787 22.2457H20.9992V24.441C20.9992 24.7598 21.1443 24.7956 21.3433 24.7956H21.4215V24.9198C21.2604 24.9198 20.9704 24.9036 20.7465 24.9036C20.4984 24.9036 20.2077 24.9198 20.0456 24.9198V24.7956H20.1248C20.3537 24.7956 20.4698 24.7757 20.4698 24.4501V22.2457H19.7903Z" fill="#231F20"></path>
        <path d="M21.4211 24.9375C21.2596 24.9375 20.9696 24.9212 20.7468 24.9212C20.4991 24.9212 20.2096 24.9375 20.0459 24.9375H20.0284V24.7783H20.125C20.3535 24.7729 20.4445 24.7702 20.4504 24.45V22.2633H19.79V22.2284H20.4864V24.45C20.4864 24.7806 20.3531 24.8128 20.125 24.8146H20.064V24.9021C20.2279 24.9002 20.5059 24.8854 20.7468 24.8854C20.9629 24.8854 21.24 24.9002 21.4039 24.9021L21.403 24.8146H21.3425C21.1431 24.8128 20.9821 24.766 20.9816 24.441V22.2284H21.6784C21.9574 22.2288 21.9928 22.4637 22.0011 22.617L22.0912 22.5839C22.0912 22.4769 22.0912 22.369 22.0998 22.2606C22.1112 22.1545 22.1276 22.0489 22.1421 21.9441L22.0803 21.9328C22.0602 22.0525 21.9443 22.0593 21.8399 22.0579H19.6817C19.5839 22.0584 19.4788 22.053 19.4408 21.9368H19.3731C19.3725 22.0494 19.364 22.1619 19.3476 22.2733C19.3362 22.3871 19.3161 22.4954 19.3008 22.6033H19.3899C19.4446 22.3168 19.4796 22.2225 19.79 22.2284V22.2633C19.4823 22.2688 19.4896 22.3204 19.4222 22.6256L19.419 22.6396H19.2588L19.2616 22.6184C19.2784 22.5032 19.2994 22.3875 19.3116 22.2688C19.3283 22.1533 19.3365 22.0367 19.3362 21.92V21.902H19.4674L19.4709 21.9151C19.5001 22.0194 19.5765 22.0199 19.6817 22.0221H21.8399C21.9547 22.0199 22.0389 22.0181 22.0457 21.91L22.0461 21.8911L22.0661 21.8948L22.1841 21.9128L22.1804 21.9305C22.1626 22.0416 22.1476 22.1532 22.1354 22.2633C22.1276 22.374 22.1276 22.4855 22.1276 22.5965V22.6092L22.1149 22.6142L21.9679 22.6678V22.6427C21.9574 22.4882 21.9405 22.2633 21.6784 22.2633H21.017V24.441C21.0212 24.7525 21.1454 24.7743 21.3425 24.7783H21.4395V24.9375H21.4211Z" fill="#231F20"></path>
        <path d="M22.3156 24.7954H22.3734C22.5236 24.7954 22.6801 24.7759 22.6801 24.5606V22.3992C22.6801 22.1839 22.5236 22.1643 22.3734 22.1643H22.3156V22.0387C22.4772 22.0387 22.7252 22.056 22.9283 22.056C23.1353 22.056 23.3838 22.0387 23.5795 22.0387V22.1643H23.5217C23.3716 22.1643 23.2135 22.1839 23.2135 22.3992V24.5606C23.2135 24.7759 23.3716 24.7954 23.5217 24.7954H23.5795V24.9201C23.3802 24.9201 23.1318 24.9038 22.9246 24.9038C22.7211 24.9038 22.4772 24.9201 22.3156 24.9201V24.7954V24.7954Z" fill="#231F20"></path>
        <path d="M23.5603 24.9016V24.8145H23.5217C23.3728 24.8145 23.1967 24.7882 23.1967 24.5607V22.3988C23.1967 22.1712 23.3728 22.1458 23.5217 22.1458H23.5603V22.0579C23.3692 22.0587 23.1303 22.0743 22.9282 22.0743C22.7316 22.0743 22.494 22.0587 22.3338 22.0579V22.1458H22.3733C22.5204 22.1458 22.6979 22.1712 22.6979 22.3988V24.5607C22.6979 24.7882 22.5204 24.8145 22.3733 24.8145H22.3338V24.9016C22.494 24.8993 22.7275 24.8853 22.9246 24.8853C23.1258 24.8853 23.3656 24.9002 23.5603 24.9016V24.9016ZM23.5795 24.9375C23.3792 24.9375 23.1312 24.9207 22.9246 24.9207C22.722 24.9207 22.4771 24.9375 22.3155 24.9375H22.2983V24.7788H22.3733C22.5235 24.776 22.6606 24.7625 22.661 24.5607V22.3988C22.6606 22.198 22.5235 22.1839 22.3733 22.1808H22.2983V22.0221H22.3155C22.4771 22.0221 22.726 22.0384 22.9282 22.0384C23.1353 22.0384 23.3832 22.0221 23.5795 22.0221H23.5963V22.1808H23.5217C23.3701 22.1839 23.2335 22.198 23.2322 22.3988V24.5607C23.2335 24.7625 23.3701 24.776 23.5217 24.7788H23.5963V24.9375H23.5795Z" fill="#231F20"></path>
        <path d="M25.2933 24.8003C26.0979 24.8003 26.2369 24.0943 26.2369 23.4931C26.2369 22.8897 25.9109 22.1597 25.2232 22.1597C24.4986 22.1597 24.2834 22.803 24.2834 23.3553C24.2834 24.0943 24.6228 24.8003 25.2933 24.8003ZM25.2315 21.9778C26.1139 21.9778 26.8181 22.5229 26.8181 23.402C26.8181 24.3511 26.1349 24.9817 25.2523 24.9817C24.373 24.9817 23.7039 24.3882 23.7039 23.5C23.701 23.2994 23.7386 23.1002 23.8143 22.9142C23.8901 22.7283 24.0025 22.5594 24.1449 22.4175C24.2873 22.2755 24.4568 22.1635 24.6435 22.088C24.8301 22.0125 25.03 21.975 25.2315 21.9778Z" fill="#231F20"></path>
        <path d="M24.2645 23.3553C24.2659 22.8004 24.4843 22.1411 25.223 22.1411C25.9272 22.1424 26.2549 22.8865 26.2554 23.4931C26.2549 24.0944 26.1123 24.8175 25.2932 24.8175V24.7827C26.082 24.7821 26.218 24.0944 26.2198 23.4931C26.2198 22.8946 25.8961 22.1783 25.223 22.1773C24.5126 22.1783 24.3023 22.8063 24.3009 23.3553C24.3018 24.0911 24.6382 24.7807 25.2932 24.7827V24.8175C24.6063 24.8166 24.2659 24.0984 24.2645 23.3553ZM23.6846 23.5004C23.6822 23.2973 23.7206 23.0959 23.7974 22.9078C23.8743 22.7198 23.9881 22.549 24.1322 22.4054C24.2763 22.2618 24.4477 22.1483 24.6365 22.0717C24.8252 21.9951 25.0274 21.9569 25.2312 21.9592V21.996C25.032 21.9929 24.8342 22.0297 24.6495 22.1042C24.4648 22.1787 24.297 22.2894 24.156 22.4297C24.0151 22.57 23.9038 22.737 23.8289 22.9209C23.7539 23.1048 23.7168 23.3019 23.7197 23.5004C23.7211 24.3777 24.3823 24.9631 25.2521 24.9636C26.1256 24.9631 26.7988 24.341 26.801 23.4011C26.8005 22.5332 26.107 21.9969 25.2312 21.996V21.9592C26.1206 21.9611 26.8338 22.5115 26.8351 23.4011C26.8347 24.36 26.1433 24.998 25.2521 24.9998C24.3665 24.998 23.687 24.3968 23.6846 23.5004" fill="#231F20"></path>
        <path d="M29.6099 24.107L29.618 24.0988V22.5514C29.618 22.2132 29.3817 22.1641 29.2561 22.1641H29.167V22.0391C29.3605 22.0391 29.552 22.0559 29.7459 22.0559C29.9171 22.0559 30.0865 22.0391 30.2557 22.0391V22.1641H30.1937C30.0191 22.1641 29.8242 22.1964 29.8242 22.6874V24.5654C29.822 24.7046 29.8305 24.8437 29.8497 24.9816H29.6918L27.5589 22.6136V24.3128C27.5589 24.6728 27.629 24.7952 27.9486 24.7952H28.0187V24.9199C27.8407 24.9199 27.6632 24.9036 27.4844 24.9036C27.2982 24.9036 27.1069 24.9199 26.9204 24.9199V24.7952H26.9791C27.2658 24.7952 27.351 24.6026 27.351 24.272V22.5346C27.3513 22.4855 27.3417 22.4368 27.3228 22.3914C27.3038 22.346 27.276 22.3048 27.2409 22.2703C27.2058 22.2358 27.1641 22.2086 27.1183 22.1904C27.0725 22.1721 27.0235 22.1632 26.9742 22.1641H26.9204V22.0391C27.0783 22.0391 27.2395 22.0559 27.3974 22.0559C27.5212 22.0559 27.6414 22.0391 27.7656 22.0391L29.6099 24.107V24.107Z" fill="#231F20"></path>
        <path d="M29.5992 24.0986V24.0972L29.5956 24.0946L29.5992 24.0986ZM29.6097 24.1068L29.6229 24.095L29.6097 24.1068ZM29.6917 24.9637H29.8286C29.8119 24.8317 29.8046 24.6986 29.8068 24.5656V22.6872C29.8068 22.1916 30.0161 22.1468 30.1936 22.1458H30.2383V22.0578C30.0739 22.0587 29.9105 22.0741 29.7449 22.0741C29.5574 22.0741 29.372 22.0587 29.1841 22.0578V22.1458H29.256C29.3853 22.1468 29.6352 22.203 29.6352 22.5516L29.6302 24.1114L29.6229 24.119L29.6097 24.1331L27.7654 22.0578C27.6436 22.0578 27.5224 22.0741 27.3973 22.0741C27.2443 22.0741 27.0881 22.0587 26.9385 22.0578V22.1458H26.9739C27.0256 22.1451 27.077 22.1547 27.1249 22.1739C27.1729 22.1932 27.2166 22.2217 27.2534 22.2579C27.2902 22.2941 27.3194 22.3372 27.3393 22.3848C27.3593 22.4323 27.3695 22.4833 27.3695 22.5348V24.2722C27.3695 24.6028 27.2771 24.8131 26.979 24.8145H26.9385V24.9016C27.1182 24.9002 27.3021 24.8853 27.4846 24.8853C27.6576 24.8853 27.8296 24.9002 28.0008 24.9016V24.8145H27.9471C27.6221 24.8145 27.5411 24.6731 27.5411 24.313V22.567L29.6917 24.9637V24.9637ZM29.8496 25L29.678 24.9936L27.5762 22.66V24.313C27.5811 24.6731 27.6362 24.7737 27.9471 24.7774H28.0371V24.9374H28.019C27.8397 24.9374 27.6617 24.9215 27.4846 24.9215C27.299 24.9215 27.1086 24.9374 26.9203 24.9374H26.9034V24.7774H26.979C27.252 24.7765 27.3308 24.6015 27.333 24.2722V22.5348C27.3333 22.488 27.3241 22.4415 27.3061 22.3982C27.2881 22.355 27.2616 22.3157 27.2281 22.2827C27.1947 22.2498 27.155 22.2238 27.1113 22.2064C27.0677 22.1889 27.0209 22.1803 26.9739 22.1811H26.9034V22.0221H26.9203C27.0791 22.0221 27.2407 22.0384 27.3973 22.0384C27.5198 22.0384 27.6389 22.0221 27.78 22.0284L29.5992 24.0692V22.5516C29.5983 22.2233 29.3785 22.1839 29.256 22.1811H29.1483V22.0221H29.1664C29.3611 22.0221 29.5533 22.0384 29.7449 22.0384C29.9155 22.0384 30.0834 22.0221 30.2554 22.0221H30.2733V22.1811H30.1936C30.0235 22.1862 29.8467 22.2016 29.8432 22.6872V24.5656C29.8407 24.7038 29.8483 24.842 29.8659 24.9791L29.8696 25H29.8496Z" fill="#231F20"></path>
        <path d="M31.5262 22.5016H31.5181L31.1326 23.6696H31.9085L31.5262 22.5016ZM30.9214 24.3298C30.8809 24.4338 30.8506 24.5414 30.8308 24.6512C30.8308 24.7756 31.006 24.7954 31.1407 24.7954H31.1872V24.9197C31.0211 24.9115 30.8517 24.9038 30.6856 24.9038C30.535 24.9038 30.3871 24.9115 30.2392 24.9197V24.7954H30.2619C30.3431 24.7957 30.4222 24.7697 30.4874 24.7214C30.5525 24.6731 30.6002 24.605 30.6233 24.5275L31.2868 22.6346C31.3511 22.4679 31.4021 22.2964 31.4393 22.1217C31.5705 22.0754 31.6968 22.0161 31.8162 21.9449C31.8269 21.9402 31.8383 21.9376 31.8499 21.9372C31.8553 21.9362 31.8609 21.9368 31.866 21.9389C31.8711 21.941 31.8755 21.9445 31.8786 21.949C31.8913 21.9821 31.9032 22.0192 31.9168 22.0523L32.6782 24.2105C32.727 24.3547 32.7779 24.5079 32.8316 24.6318C32.8528 24.6853 32.8911 24.7303 32.9405 24.7598C32.99 24.7894 33.0479 24.8019 33.1052 24.7954H33.1297V24.9197C32.9436 24.9115 32.7565 24.9038 32.5581 24.9038C32.3552 24.9038 32.1475 24.9115 31.9364 24.9197V24.7954H31.9823C32.0769 24.7954 32.2394 24.78 32.2394 24.6766C32.2233 24.5746 32.1952 24.4748 32.1557 24.3792L31.995 23.9004H31.0557L30.9214 24.3298H30.9214Z" fill="#231F20"></path>
        <path d="M31.5107 22.5073L31.5181 22.5045L31.5107 22.5073ZM31.1581 23.6511H31.8831L31.5217 22.5467L31.1581 23.6511V23.6511ZM31.1075 23.6865L31.5067 22.4842H31.5262V22.5013L31.5222 22.5032L31.5262 22.5013V22.4842H31.5399L31.9313 23.6865H31.1075ZM31.9545 24.9007C32.1588 24.8939 32.3609 24.8854 32.5585 24.8854C32.7506 24.8854 32.9309 24.8939 33.1111 24.9002V24.8146H33.1047C33.0438 24.8202 32.9828 24.8061 32.9306 24.7744C32.8783 24.7427 32.8377 24.6951 32.8147 24.6387C32.7592 24.5136 32.7101 24.3603 32.661 24.2162L31.8994 22.0579C31.8872 22.0248 31.8735 21.9876 31.8635 21.9596C31.8604 21.9541 31.8604 21.9541 31.8572 21.9541H31.8499C31.8416 21.9546 31.8335 21.9564 31.8258 21.9596C31.7103 22.0303 31.5861 22.0858 31.4562 22.1246C31.4188 22.3 31.3676 22.4722 31.3032 22.6396L30.6396 24.5339C30.6155 24.615 30.5658 24.6861 30.4978 24.7367C30.4298 24.7873 30.3472 24.8146 30.2624 24.8146H30.2554V24.9002C30.3989 24.8939 30.5418 24.8854 30.6861 24.8854C30.8463 24.8854 31.0093 24.8939 31.1699 24.9002V24.8146H31.1407C31.0065 24.8128 30.8176 24.7983 30.8126 24.6513C30.8325 24.5397 30.8636 24.4304 30.9055 24.325L30.9214 24.3299L30.9055 24.3245L31.0411 23.8834H32.0078L32.173 24.3735C32.2136 24.4706 32.2415 24.5725 32.2563 24.6767C32.2504 24.8033 32.0766 24.8123 31.9814 24.8146H31.9545V24.9007V24.9007ZM33.1288 24.9375C32.9422 24.9302 32.7551 24.9212 32.5585 24.9212C32.356 24.9212 32.1484 24.9302 31.9373 24.9375L31.919 24.9389V24.7788H31.9814C32.0778 24.7788 32.2209 24.7561 32.2217 24.6767C32.2054 24.5767 32.1773 24.4788 32.1381 24.3853L31.9809 23.9186H31.0666L30.9392 24.335C30.8989 24.4373 30.8688 24.5432 30.8491 24.6513C30.8491 24.7525 31.0042 24.7788 31.1407 24.7788H31.2045V24.9389L31.1858 24.9375C31.0206 24.9302 30.8504 24.9212 30.6861 24.9212C30.5368 24.9212 30.3884 24.9302 30.2392 24.9375L30.2209 24.9389V24.7788H30.2624C30.3398 24.7783 30.415 24.7531 30.477 24.7068C30.5389 24.6605 30.5843 24.5956 30.6064 24.5217L31.2695 22.6283C31.3332 22.457 31.3877 22.2825 31.4329 22.1055C31.5639 22.0584 31.6902 21.9989 31.8099 21.9279C31.8225 21.9223 31.8361 21.9192 31.8499 21.9188C31.859 21.9179 31.8682 21.9198 31.8763 21.9242C31.8844 21.9285 31.891 21.9352 31.8953 21.9433C31.9072 21.9759 31.9194 22.013 31.9326 22.0462L32.6951 24.2048C32.7442 24.349 32.7943 24.5013 32.8484 24.6238C32.8678 24.6742 32.9036 24.7169 32.95 24.7449C32.9964 24.773 33.0508 24.7849 33.1047 24.7788H33.1471V24.9389L33.1288 24.9375H33.1288Z" fill="#231F20"></path>
        <path d="M34.1741 24.5155C34.1741 24.6805 34.2892 24.7301 34.4216 24.7468C34.604 24.7607 34.7873 24.758 34.9692 24.7387C35.047 24.7296 35.1221 24.7052 35.1902 24.6669C35.2583 24.6286 35.3181 24.5771 35.3661 24.5155C35.4255 24.4243 35.469 24.3238 35.4948 24.2181H35.615C35.5686 24.4535 35.5108 24.6851 35.4607 24.92C35.0966 24.92 34.7316 24.9037 34.3685 24.9037C34.0035 24.9037 33.6384 24.92 33.2742 24.92V24.7953H33.3312C33.4817 24.7953 33.643 24.7758 33.643 24.5192V22.399C33.643 22.1837 33.4817 22.1642 33.3312 22.1642H33.2742V22.0391C33.4936 22.0391 33.7093 22.0559 33.9283 22.0559C34.1399 22.0559 34.347 22.0391 34.5587 22.0391V22.1642H34.4544C34.2974 22.1642 34.1741 22.1683 34.1741 22.3873V24.5155V24.5155Z" fill="#231F20"></path>
        <path d="M35.4467 24.9016C35.4946 24.6781 35.5491 24.4586 35.5924 24.2356H35.5074C35.4825 24.3392 35.4393 24.4377 35.3798 24.5262C35.3301 24.5897 35.2682 24.6427 35.1977 24.6822C35.1273 24.7217 35.0496 24.7468 34.9693 24.7561C34.864 24.7674 34.7581 24.773 34.6521 24.7729C34.5719 24.7729 34.4933 24.7692 34.4185 24.7642C34.2848 24.7493 34.1537 24.6921 34.155 24.5157V22.3871C34.155 22.1571 34.3003 22.1459 34.4546 22.1459H34.5401V22.0579C34.3362 22.0587 34.134 22.0743 33.9284 22.0743C33.7131 22.0743 33.5033 22.0587 33.2917 22.0579V22.1459H33.3313C33.4796 22.1459 33.6603 22.1712 33.6603 22.3983V24.519C33.6603 24.786 33.4801 24.8145 33.3313 24.8145H33.2917V24.9016C33.6489 24.9007 34.0081 24.8853 34.3686 24.8853C34.7281 24.8853 35.0871 24.9007 35.4467 24.9016V24.9016ZM35.4609 24.9375C35.0958 24.9375 34.7317 24.9212 34.3686 24.9212C34.0036 24.9212 33.6385 24.9375 33.2735 24.9375H33.2567V24.7788H33.3313C33.4815 24.7751 33.6244 24.7642 33.6257 24.519V22.3983C33.6244 22.198 33.4829 22.1839 33.3313 22.1808H33.2567V22.0221H33.2735C33.4943 22.0221 33.7095 22.0384 33.9284 22.0384C34.1391 22.0384 34.3462 22.0221 34.5588 22.0221H34.5752V22.1808H34.4546C34.2938 22.1853 34.1938 22.178 34.1901 22.3871V24.5158C34.1918 24.6695 34.2925 24.7103 34.4231 24.7294C34.495 24.7343 34.5729 24.7371 34.6521 24.7371C34.7571 24.7371 34.8621 24.7317 34.9666 24.7208C35.1184 24.7026 35.2568 24.6253 35.3516 24.5058C35.4098 24.4164 35.4519 24.3176 35.4759 24.2139L35.4804 24.1997H35.6366L35.6325 24.2225C35.586 24.4577 35.5292 24.6886 35.4791 24.9243L35.4746 24.9375H35.4609Z" fill="#231F20"></path>
        <path d="M35.4948 22.3582H35.5458C35.6022 22.3582 35.6281 22.316 35.6281 22.2475C35.63 22.2356 35.6291 22.2233 35.6255 22.2117C35.622 22.2001 35.6159 22.1895 35.6077 22.1805C35.5995 22.1716 35.5894 22.1645 35.5781 22.16C35.5668 22.1554 35.5547 22.1534 35.5426 22.1541H35.4948V22.3582V22.3582ZM35.3474 22.5876V22.5659C35.4001 22.5586 35.4106 22.5609 35.4106 22.5268V22.2058C35.4106 22.16 35.4056 22.1446 35.3488 22.1473V22.1247H35.5725C35.6481 22.1247 35.7192 22.1618 35.7192 22.2403C35.7191 22.2704 35.7089 22.2997 35.6903 22.3234C35.6716 22.3471 35.6456 22.364 35.6163 22.3713L35.6873 22.4715C35.7145 22.51 35.7471 22.5444 35.7842 22.5736V22.5876H35.6992C35.6586 22.5876 35.6232 22.5014 35.5426 22.3876H35.4948V22.5314C35.4948 22.5609 35.5047 22.5586 35.5575 22.5659V22.5876H35.3474ZM35.564 22.7104C35.6346 22.7122 35.7041 22.6929 35.7637 22.6551C35.8232 22.6173 35.8701 22.5627 35.8983 22.4982C35.9265 22.4337 35.9347 22.3622 35.922 22.293C35.9092 22.2239 35.876 22.16 35.8266 22.1097C35.7772 22.0595 35.7139 22.025 35.6447 22.0108C35.5756 21.9965 35.5037 22.0032 35.4384 22.0299C35.373 22.0566 35.3171 22.102 35.2779 22.1605C35.2387 22.219 35.2178 22.2879 35.2181 22.3582C35.2174 22.4505 35.2533 22.5394 35.3182 22.6053C35.383 22.6713 35.4713 22.7091 35.564 22.7104V22.7104ZM35.564 21.9229C35.6501 21.9231 35.7342 21.9486 35.8058 21.9963C35.8773 22.0441 35.933 22.1119 35.9659 22.1911C35.9988 22.2704 36.0074 22.3576 35.9906 22.4417C35.9738 22.5258 35.9324 22.6031 35.8715 22.6638C35.8107 22.7245 35.7332 22.7658 35.6487 22.7827C35.5643 22.7995 35.4768 22.791 35.3972 22.7583C35.3176 22.7256 35.2495 22.6702 35.2015 22.599C35.1535 22.5278 35.1277 22.444 35.1275 22.3582C35.1264 22.3008 35.1369 22.2437 35.1585 22.1904C35.18 22.1372 35.2121 22.0888 35.2529 22.0481C35.2936 22.0075 35.3422 21.9755 35.3956 21.9539C35.4491 21.9324 35.5064 21.9219 35.564 21.9229" fill="#231F20"></path>
        <path d="M9.70546 7.36362C9.70546 5.98136 10.1169 4.63015 10.8878 3.48085C11.6587 2.33155 12.7544 1.43578 14.0363 0.906811C15.3182 0.377846 16.7288 0.239444 18.0897 0.509107C19.4506 0.77877 20.7007 1.44439 21.6818 2.42179C22.663 3.39919 23.3312 4.64447 23.6019 6.00016C23.8726 7.35586 23.7336 8.76107 23.2026 10.0381C22.6716 11.3151 21.7724 12.4066 20.6187 13.1746C19.465 13.9425 18.1086 14.3524 16.7211 14.3524C15.7998 14.3524 14.8875 14.1717 14.0363 13.8205C13.1851 13.4693 12.4117 12.9545 11.7602 12.3055C11.1087 11.6565 10.592 10.8861 10.2394 10.0382C9.88687 9.19022 9.70543 8.28141 9.70546 7.36362" fill="#FFFFFF"></path>
        <path d="M20.9641 7.22591C20.9631 6.37635 20.7037 5.54702 20.2202 4.84719C19.7367 4.14735 19.0517 3.60983 18.2555 3.30544V11.1464C19.0517 10.842 19.7367 10.3044 20.2201 9.60461C20.7036 8.90478 20.963 8.07547 20.9641 7.22591V7.22591ZM15.2368 11.1446V3.30589C14.4406 3.60967 13.7556 4.14695 13.2724 4.84675C12.7892 5.54654 12.5305 6.37591 12.5305 7.22527C12.5305 8.07463 12.7892 8.904 13.2724 9.60379C13.7556 10.3036 14.4406 10.8409 15.2368 11.1446ZM16.747 0.5986C15.4315 0.598786 14.1455 0.987556 13.0518 1.71575C11.958 2.44395 11.1056 3.47888 10.6023 4.68967C10.0989 5.90046 9.96727 7.23274 10.224 8.51806C10.4807 9.80338 11.1142 10.984 12.0444 11.9107C12.9747 12.8373 14.1598 13.4684 15.4501 13.7241C16.7403 13.9798 18.0777 13.8487 19.2931 13.3472C20.5086 12.8458 21.5475 11.9966 22.2784 10.907C23.0094 9.81746 23.3997 8.53642 23.3998 7.22591C23.3998 5.46824 22.6989 3.78256 21.4512 2.5397C20.2036 1.29684 18.5115 0.598608 16.747 0.5986V0.5986ZM16.7307 14.4774C12.7101 14.4961 9.40107 11.2516 9.40107 7.3015C9.40107 2.98494 12.7101 -0.000943061 16.7307 -4.5574e-05H18.6152C22.5878 -0.000943061 26.214 2.98314 26.214 7.3015C26.214 11.2498 22.5878 14.4774 18.6152 14.4774H16.7307Z" fill="#0B4F95"></path>
    </g>
    <defs>
        <clipPath id="clip0_210_810">
            <rect width="36" height="25" fill="white"></rect>
        </clipPath>
    </defs>
<title id="paymentsdiners-diners">Diners</title></svg>