<svg xmlns:xlink="http://www.w3.org/1999/xlink" xmlns="http://www.w3.org/2000/svg" width="306.09" height="269.83" viewBox="0 0 306.09 269.83" aria-labelledby="paymentsideal-ideal" role="img" focusable="false"><defs><style>.a-ideal{fill:#fff;}.b-ideal{fill:#c06;}</style></defs><path class="a-ideal" d="M0,20V249.83a20,20,0,0,0,20,20H157.32c103.77,0,148.77-58.12,148.77-135.18C306.09,57.89,261.09,0,157.32,0H20A20,20,0,0,0,0,20Z" fill="#FFFFFF"></path><path d="M157.29,251.46H37.86a19.22,19.22,0,0,1-19.2-19.2V37.57a19.22,19.22,0,0,1,19.2-19.2H157.29c113.27,0,130.19,72.85,130.19,116.28C287.48,210,241.24,251.46,157.29,251.46ZM37.86,24.77a12.82,12.82,0,0,0-12.81,12.8V232.26a12.82,12.82,0,0,0,12.81,12.8H157.29c79.82,0,123.79-39.21,123.79-110.41,0-95.6-77.56-109.88-123.79-109.88Z"></path><path class="b-ideal" d="M91.88,56.43V226.2h73.9c67.14,0,96.25-37.94,96.25-91.46,0-51.27-29.11-91.11-96.25-91.11h-61.1A12.8,12.8,0,0,0,91.88,56.43Z" fill="#CC0066"></path><polygon class="a-ideal" points="232.77 111.82 232.77 144.88 252.53 144.88 252.53 152.38 223.85 152.38 223.85 111.82 232.77 111.82" fill="#FFFFFF"></polygon><path class="a-ideal" d="M203.08,111.82l15.17,40.56H209l-3.07-9H190.75l-3.18,9h-9l15.34-40.56Zm.51,24.88-5.11-14.88h-.11l-5.28,14.88Z" fill="#FFFFFF"></path><polygon class="a-ideal" points="172.53 111.82 172.53 119.32 151.12 119.32 151.12 128.01 170.77 128.01 170.77 134.94 151.12 134.94 151.12 144.88 172.99 144.88 172.99 152.38 142.21 152.38 142.21 111.82 172.53 111.82" fill="#FFFFFF"></polygon><path class="a-ideal" d="M117.9,111.82a20.9,20.9,0,0,1,7.29,1.25,15.89,15.89,0,0,1,5.85,3.75,17.35,17.35,0,0,1,3.87,6.25,25.46,25.46,0,0,1,1.39,8.81,28,28,0,0,1-1.14,8.17,18.12,18.12,0,0,1-3.43,6.48,16.14,16.14,0,0,1-5.74,4.29,19.43,19.43,0,0,1-8.09,1.56H100.4V111.82Zm-.63,33.06a11.61,11.61,0,0,0,3.75-.62,8.3,8.3,0,0,0,3.24-2.08,10.48,10.48,0,0,0,2.27-3.77,16.58,16.58,0,0,0,.85-5.68,24.08,24.08,0,0,0-.59-5.54,11,11,0,0,0-2-4.23,8.74,8.74,0,0,0-3.61-2.7,14.31,14.31,0,0,0-5.54-.94h-6.36v25.56Z" fill="#FFFFFF"></path><path d="M58.48,161.57h0a14.17,14.17,0,0,1,14.17,14.17V226.2a0,0,0,0,1,0,0h0A28.35,28.35,0,0,1,44.3,197.85V175.74A14.17,14.17,0,0,1,58.48,161.57Z"></path><circle cx="58.48" cy="132.1" r="18.71"></circle><title id="paymentsideal-ideal">Ideal</title></svg>